<?xml version="1.0" standalone="no"?>
<!DOCTYPE svg PUBLIC "-//W3C//DTD SVG 20010904//EN"
 "http://www.w3.org/TR/2001/REC-SVG-20010904/DTD/svg10.dtd">
<svg version="1.0" xmlns="http://www.w3.org/2000/svg"
 width="285.000000pt" height="395.000000pt" viewBox="0 0 285.000000 395.000000"
 preserveAspectRatio="xMidYMid meet">

<g transform="translate(0.000000,395.000000) scale(0.100000,-0.100000)"
fill="#000000" stroke="none">
<path d="M1370 3825 c0 -32 -2 -35 -30 -35 l-30 0 0 -60 0 -60 30 0 c25 0 30
-4 30 -25 0 -21 -5 -25 -31 -25 -18 0 -46 -9 -65 -20 -32 -20 -74 -90 -74
-123 0 -10 -8 -17 -20 -17 -17 0 -20 -7 -20 -38 0 -32 -5 -41 -25 -50 -15 -7
-32 -26 -39 -43 l-13 -30 -42 35 c-24 20 -46 36 -50 36 -4 0 -33 -31 -65 -70
l-57 -70 -67 -2 c-85 -2 -81 -2 -118 13 -17 7 -42 9 -58 5 -37 -9 -76 -50 -76
-79 0 -16 -12 -34 -35 -51 -19 -15 -42 -40 -50 -57 l-16 -29 -94 0 -95 0 0
-100 0 -100 55 0 54 0 -19 -42 c-31 -68 -21 -141 25 -196 13 -16 22 -31 19
-34 -9 -10 -53 4 -70 23 -19 21 -46 24 -75 9 -27 -15 -26 -76 2 -106 l21 -22
-21 -11 c-28 -16 -51 -63 -51 -106 0 -27 8 -44 30 -67 17 -16 30 -31 30 -33 0
-1 -18 -33 -40 -71 -63 -109 -117 -242 -152 -375 -31 -120 -32 -131 -33 -329
0 -161 4 -223 18 -290 105 -493 455 -894 917 -1052 146 -50 253 -69 420 -75
342 -12 634 81 908 289 248 188 431 471 508 783 86 353 31 734 -153 1048 l-45
77 26 21 c48 38 42 141 -10 175 l-24 16 20 25 c22 29 26 83 8 101 -19 19 -65
14 -87 -9 -13 -14 -28 -19 -47 -17 l-29 4 36 22 c56 34 92 123 97 233 3 66 0
94 -12 118 -9 17 -20 31 -25 31 -4 0 -25 25 -45 55 -20 30 -39 55 -43 55 -4 0
-17 -10 -30 -22 -20 -19 -25 -20 -33 -8 -5 8 -10 29 -10 47 0 31 -1 32 -42 30
-40 -2 -42 0 -49 30 -9 44 -24 61 -69 74 -30 9 -42 8 -70 -6 -33 -17 -34 -17
-51 4 -10 12 -19 27 -21 33 -3 9 -12 7 -33 -6 -22 -15 -32 -16 -52 -7 -13 6
-34 11 -46 11 -12 0 -28 9 -35 20 -7 11 -19 20 -28 20 -8 0 -20 14 -25 30 -13
36 -34 38 -66 8 l-24 -22 -25 32 c-14 18 -32 32 -40 32 -10 0 -14 12 -14 40 0
33 -3 40 -20 40 -12 0 -20 7 -20 17 0 30 -40 101 -68 119 -15 10 -43 20 -62
24 -26 4 -35 10 -35 25 0 15 8 21 33 23 l32 3 0 59 0 59 -32 3 c-29 3 -33 7
-36 36 l-3 32 -65 0 -64 0 0 -35z m80 -50 c0 -33 2 -35 35 -35 19 0 35 -4 35
-10 0 -5 -16 -10 -35 -10 l-35 0 0 -79 0 -79 45 6 c55 6 90 -15 111 -63 17
-43 17 -45 -1 -45 -8 0 -15 6 -15 14 0 24 -39 64 -69 71 -18 4 -40 1 -57 -8
-23 -12 -31 -12 -56 0 -50 25 -106 1 -122 -54 -10 -31 -26 -29 -26 3 0 15 12
38 31 56 28 29 34 30 85 25 l54 -6 0 80 0 79 -35 0 c-19 0 -35 5 -35 10 0 6
16 10 35 10 33 0 35 2 35 35 0 19 5 35 10 35 6 0 10 -16 10 -35z m206 -366 c3
-5 -97 -9 -226 -9 -156 0 -229 3 -225 10 8 13 443 12 451 -1z m-428 -79 c26
-24 27 -43 7 -100 -8 -24 -14 -44 -13 -45 8 -6 47 -25 52 -25 3 0 15 19 27 43
12 23 24 37 26 30 2 -6 -3 -25 -11 -42 -9 -16 -16 -32 -16 -34 0 -3 19 -12 43
-22 23 -9 54 -28 68 -41 24 -23 27 -23 39 -9 8 9 37 28 64 42 28 14 52 27 54
28 2 2 -4 17 -12 34 -18 35 -19 41 -7 41 5 0 14 -14 21 -30 7 -17 16 -33 21
-35 10 -7 59 16 59 28 0 5 6 7 14 4 20 -8 56 35 56 67 0 55 -37 85 -68 54 -15
-15 -16 -63 -2 -89 7 -12 7 -19 1 -19 -6 0 -16 18 -22 40 -15 50 -1 87 37 96
22 6 32 2 51 -20 33 -39 31 -90 -6 -125 l-29 -27 29 -39 c16 -21 26 -41 23
-44 -5 -6 -29 19 -59 62 -12 17 -14 17 -49 0 -23 -11 -35 -22 -31 -31 3 -7 5
-36 5 -63 0 -46 1 -49 33 -57 29 -8 33 -6 44 17 12 24 12 22 7 -21 -5 -51 15
-114 40 -124 8 -3 17 -13 20 -21 6 -14 -1 -15 -48 -9 -31 3 -85 17 -122 30
-66 24 -66 24 -98 5 -39 -24 -51 -24 -87 2 l-29 20 -63 -24 c-34 -14 -89 -30
-121 -36 -76 -14 -226 -14 -226 -1 0 6 34 10 83 10 91 0 117 11 142 60 31 59
6 133 -54 165 -42 21 -70 19 -126 -10 -61 -30 -70 -25 -17 10 37 24 122 38
139 22 3 -3 21 12 39 34 l34 41 -30 28 c-37 34 -40 84 -9 124 25 31 48 33 77
6z m97 1 c3 -11 24 -36 45 -55 57 -52 83 -48 146 19 29 30 55 55 58 55 15 0
-26 -59 -63 -93 -54 -49 -93 -50 -147 -3 -49 42 -83 96 -60 96 8 0 17 -9 21
-19z m-312 -49 c-2 -6 9 -20 24 -32 14 -11 23 -23 20 -26 -3 -4 -17 6 -30 21
l-23 27 -17 -26 c-19 -29 -15 -44 15 -55 19 -7 19 -8 2 -22 -10 -7 -15 -9 -11
-3 4 6 -3 20 -14 30 -20 18 -21 18 -53 -21 -24 -28 -34 -34 -38 -24 -6 17 102
150 117 145 6 -2 9 -8 8 -14z m861 -31 c4 -5 0 -11 -6 -14 -10 -3 -8 -10 6
-25 10 -11 16 -26 14 -33 -4 -13 -48 50 -48 70 0 13 26 15 34 2z m-65 -60 c8
-14 6 -22 -8 -35 -37 -34 -79 -2 -45 35 22 24 41 24 53 0z m163 12 c-11 -4
-42 -54 -42 -68 0 -3 11 -5 25 -5 35 0 31 -15 -4 -16 -37 -1 -101 -59 -101
-91 0 -13 -5 -23 -10 -23 -6 0 -24 -15 -41 -32 -24 -26 -28 -28 -19 -10 9 19
8 27 -4 41 -27 29 -19 46 55 115 54 51 74 65 84 56 9 -8 17 -4 29 15 9 14 22
25 29 24 9 0 9 -2 -1 -6z m-1292 -18 c11 -13 27 -14 86 -9 l74 7 14 -34 c8
-19 24 -83 36 -144 12 -60 23 -116 26 -123 2 -7 -2 -14 -9 -16 -74 -21 -109
-36 -151 -64 -27 -18 -55 -31 -61 -28 -19 7 -185 230 -185 249 0 9 20 33 45
54 29 24 45 45 45 60 0 25 32 63 54 63 7 0 19 -7 26 -15z m439 1 c20 -23 2
-46 -36 -46 l-34 0 21 30 c24 33 32 36 49 16z m1023 -26 c17 0 39 7 48 15 26
24 70 1 70 -36 0 -30 40 -69 70 -69 18 0 30 -19 30 -48 0 -8 -13 -27 -30 -41
-25 -22 -31 -36 -36 -86 -3 -37 -14 -72 -27 -92 -19 -28 -28 -33 -61 -33 -21
0 -56 5 -78 12 -31 9 -44 9 -59 0 -26 -17 -29 -15 -29 11 0 16 -14 33 -44 54
-87 62 -93 122 -20 194 38 37 44 49 44 84 0 33 5 43 26 56 25 15 28 15 45 -2
11 -11 33 -19 51 -19z m-701 6 l45 -1 -24 -19 c-20 -16 -28 -17 -41 -7 -9 6
-29 18 -46 27 -24 12 -25 14 -5 8 14 -4 46 -8 71 -8z m-471 -40 c0 -2 -12 -12
-27 -21 l-28 -18 19 21 c17 20 36 29 36 18z m686 -57 c-16 -23 -16 -23 -16 16
0 36 1 38 16 23 15 -15 15 -18 0 -39z m-545 -56 c37 -35 37 -57 0 -94 -42 -42
-91 -35 -91 13 0 15 -8 18 -44 18 -30 0 -46 5 -50 15 -4 12 4 15 43 15 46 0
49 2 55 30 4 24 11 30 32 30 14 0 38 -12 55 -27z m1369 -27 c0 -3 -5 -17 -11
-33 -6 -15 -10 -30 -10 -33 0 -3 -7 -13 -16 -22 -18 -20 -11 -48 12 -48 15 0
27 11 60 55 22 30 35 3 34 -75 -1 -98 -10 -110 -37 -50 -28 61 -64 77 -93 41
-14 -17 -16 -28 -8 -48 14 -37 4 -56 -26 -51 -19 4 -26 -1 -36 -23 -15 -38
-29 -37 -29 1 0 24 -4 30 -21 30 -21 0 -21 1 4 20 22 18 26 30 32 106 4 47 11
81 14 75 6 -10 16 -8 99 15 10 3 10 9 2 24 -9 17 -8 20 10 20 11 0 20 -2 20
-4z m-1982 -23 c3 -10 -20 -13 -92 -13 -80 0 -96 3 -96 15 0 13 15 15 92 13
62 -2 93 -7 96 -15z m1352 -58 c10 -13 9 -15 -9 -15 -12 0 -21 6 -21 15 0 8 4
15 9 15 5 0 14 -7 21 -15z m-1330 -5 c-20 -13 -50 -13 -50 0 0 6 15 10 33 10
24 0 28 -3 17 -10z m-177 -7 c-7 -2 -19 -2 -25 0 -7 3 -2 5 12 5 14 0 19 -2
13 -5z m77 3 c0 -9 -30 -14 -35 -6 -4 6 3 10 14 10 12 0 21 -2 21 -4z m120
-46 c0 -5 -7 -10 -15 -10 -31 0 -95 -41 -110 -70 -44 -86 14 -180 112 -180 38
0 46 5 102 67 34 36 63 64 66 61 8 -7 -101 -129 -158 -176 -29 -24 -95 -65
-148 -92 -108 -55 -122 -67 -117 -107 4 -36 43 -45 53 -13 4 12 9 19 12 17 3
-3 2 -15 -2 -26 -4 -15 -15 -21 -34 -21 -33 0 -51 16 -51 48 0 43 21 63 103
101 l82 38 -59 7 c-73 8 -96 20 -95 49 1 14 3 17 6 6 13 -51 163 -51 225 1
l23 19 -25 1 c-35 0 -87 34 -110 72 -47 78 -8 170 87 204 47 16 53 17 53 4z
m1395 -10 c4 -6 -13 -10 -45 -10 -32 0 -49 4 -45 10 3 6 24 10 45 10 21 0 42
-4 45 -10z m-1322 -27 c4 -3 -5 -21 -19 -40 -23 -30 -24 -35 -11 -54 19 -26
10 -58 -17 -63 -11 -3 -33 -7 -48 -10 -40 -9 -60 16 -56 72 4 54 26 74 59 53
20 -12 24 -10 46 18 25 31 34 36 46 24z m1092 -22 c193 -42 389 -130 535 -239
96 -72 226 -202 244 -246 8 -19 23 -39 34 -45 11 -6 41 -44 66 -83 266 -428
276 -973 25 -1402 -141 -241 -337 -421 -594 -547 -661 -323 -1459 -48 -1794
620 -94 187 -141 387 -141 606 0 219 46 419 141 607 47 94 115 198 129 198 5
0 19 19 31 43 12 23 63 83 113 132 191 190 434 314 716 365 135 25 360 21 495
-9z m770 -21 c42 -81 -10 -177 -105 -196 -22 -5 -31 -4 -27 3 4 6 20 13 37 17
17 3 45 19 62 36 27 27 29 35 25 78 -2 26 -8 57 -12 70 -11 32 2 27 20 -8z
m-1645 10 c0 -5 -4 -10 -10 -10 -5 0 -10 5 -10 10 0 6 5 10 10 10 6 0 10 -4
10 -10z m119 6 c-2 -1 -19 -8 -36 -14 -27 -9 -33 -8 -33 4 0 10 11 14 37 14
20 0 34 -2 32 -4z m1041 -10 c0 -12 -6 -13 -30 -5 -16 6 -30 13 -30 15 0 2 14
4 30 4 20 0 30 -5 30 -14z m-1195 -46 c3 -5 -8 -16 -25 -25 -33 -17 -39 -11
-13 17 18 20 29 23 38 8z m1317 -7 c28 -25 21 -35 -12 -18 -17 9 -28 20 -25
25 9 14 16 12 37 -7z m118 -67 c0 -6 -16 7 -34 29 -19 22 -32 44 -29 48 6 9
63 -61 63 -77z m144 10 c-3 -21 -9 -35 -11 -32 -3 3 -2 21 1 42 4 20 10 34 12
31 3 -3 2 -21 -2 -41z m9 -128 c30 -16 60 -22 105 -22 55 -1 66 2 83 23 12 15
19 18 19 9 0 -27 -35 -47 -95 -54 l-60 -8 82 -37 c45 -21 87 -47 92 -58 19
-34 13 -69 -13 -86 -31 -21 -66 -5 -65 28 l0 22 11 -22 c14 -29 44 -30 58 -2
18 32 -12 66 -86 99 -63 29 -177 101 -189 120 -10 16 13 12 58 -12z"/>
<path d="M1160 3311 c-18 -34 -12 -76 15 -101 l25 -23 15 36 c18 44 19 79 3
95 -18 18 -46 14 -58 -7z"/>
<path d="M1173 3125 c-31 -41 -31 -43 -13 -60 10 -9 23 -29 30 -45 11 -26 14
-27 45 -17 32 10 33 12 37 71 2 34 3 62 3 63 -1 1 -17 9 -36 17 l-34 14 -32
-43z m57 -47 c0 -32 0 -32 -16 -10 -15 22 -12 42 7 42 5 0 9 -15 9 -32z"/>
<path d="M1290 3074 l0 -56 27 7 c15 3 31 12 35 18 4 6 10 8 14 4 10 -10 -16
-37 -37 -37 -10 0 -20 -4 -23 -9 -8 -12 42 -71 60 -71 25 0 55 61 52 105 -3
37 -7 42 -53 67 -71 39 -75 37 -75 -28z"/>
<path d="M1520 3114 c-52 -23 -70 -43 -70 -81 0 -68 46 -119 80 -88 28 25 46
18 21 -9 l-23 -24 54 -20 c29 -11 68 -23 86 -27 33 -7 33 -6 21 17 -7 12 -15
38 -18 57 -5 28 -12 36 -44 47 -32 11 -39 11 -44 -1 -7 -21 -24 -19 -21 3 2
11 -4 18 -19 20 -24 4 -49 29 -39 39 4 4 10 2 14 -4 4 -6 20 -15 35 -18 l27
-7 0 56 c0 62 -4 64 -60 40z m110 -179 c0 -8 -7 -15 -15 -15 -8 0 -15 7 -15
15 0 8 7 15 15 15 8 0 15 -7 15 -15z"/>
<path d="M1240 2987 c-29 -10 -36 -18 -40 -47 -4 -19 -12 -46 -19 -58 -12 -23
-12 -24 21 -17 18 4 57 16 86 27 l52 20 -22 27 c-13 16 -27 35 -33 44 -8 13
-15 14 -45 4z m28 -55 c2 -7 -3 -12 -12 -12 -9 0 -16 7 -16 16 0 17 22 14 28
-4z"/>
<path d="M1406 2945 c-15 -20 -26 -38 -25 -39 45 -34 52 -35 81 -18 15 9 28
19 28 22 0 3 -13 20 -28 38 l-28 34 -28 -37z"/>
<path d="M636 3158 c-3 -7 -7 -25 -10 -41 -4 -16 -20 -36 -41 -50 -41 -26 -53
-53 -32 -74 13 -14 20 -12 61 16 25 18 46 38 46 46 0 20 38 39 54 26 8 -7 29
-5 66 6 30 8 56 17 58 18 1 1 -2 14 -7 28 -9 23 -13 25 -48 16 -57 -13 -99
-11 -113 6 -15 18 -29 19 -34 3z"/>
<path d="M784 3046 c-51 -16 -158 -73 -178 -95 -13 -14 -12 -18 3 -38 l18 -21
41 26 c23 15 42 35 42 44 0 19 29 31 53 23 17 -7 97 12 97 23 -1 23 -14 52
-24 51 -6 0 -29 -6 -52 -13z"/>
<path d="M812 2945 c-51 -16 -152 -75 -152 -89 0 -5 7 -18 16 -27 16 -17 18
-18 45 -2 15 9 30 27 33 39 7 25 33 39 50 25 13 -11 64 -3 72 11 7 12 -4 58
-14 57 -4 0 -26 -6 -50 -14z"/>
<path d="M2057 3155 c-10 -7 -17 -26 -17 -45 0 -25 -11 -44 -45 -81 -63 -68
-62 -96 8 -161 28 -27 63 -51 77 -54 14 -2 39 -8 56 -13 82 -22 134 18 134
101 0 43 4 54 30 78 41 39 38 61 -13 85 -32 15 -43 26 -45 48 -4 36 -37 54
-61 33 -23 -21 -39 -20 -77 3 -25 15 -33 16 -47 6z m143 -69 c0 -5 15 -23 34
-40 33 -32 33 -32 14 -56 -16 -20 -22 -22 -45 -11 -23 11 -25 16 -20 52 l5 41
-28 -27 c-24 -23 -32 -26 -57 -18 -15 5 -28 15 -27 21 1 7 2 20 3 30 1 15 10
18 61 17 33 0 60 -4 60 -9z m-131 -138 l-22 -31 36 7 c32 6 37 4 53 -23 19
-33 34 -26 34 17 0 12 3 22 8 22 4 0 17 3 30 6 20 6 22 3 22 -34 0 -42 -19
-72 -46 -72 -67 0 -194 72 -194 109 0 10 16 33 37 51 l36 32 14 -26 c13 -24
12 -30 -8 -58z"/>
<path d="M1040 2970 c0 -61 18 -73 55 -39 31 30 31 38 1 67 -40 37 -56 30 -56
-28z"/>
<path d="M487 2753 c-9 -9 -9 -81 1 -86 15 -9 74 6 79 21 4 9 -6 26 -25 44
-33 29 -44 33 -55 21z"/>
<path d="M1338 2753 c-55 -4 -74 -15 -44 -26 19 -8 32 -122 16 -142 -16 -19 5
-28 46 -21 16 2 39 5 52 5 17 1 22 7 22 26 0 25 -14 33 -25 15 -13 -20 -35
-10 -35 16 0 23 2 25 15 14 20 -16 39 -1 33 26 -2 14 -11 18 -31 16 -22 -3
-27 1 -27 17 0 22 14 28 25 11 12 -20 25 -9 25 20 0 17 -3 29 -7 28 -5 -1 -34
-3 -65 -5z"/>
<path d="M1470 2745 c0 -8 4 -15 10 -15 12 0 2 -120 -11 -134 -16 -17 -10 -23
28 -29 43 -7 58 -1 43 18 -7 8 -10 22 -8 32 3 14 7 12 21 -13 15 -29 61 -58
83 -53 5 1 22 -3 37 -9 37 -16 48 -15 75 4 28 19 29 63 2 97 -11 14 -20 30
-20 36 0 18 19 12 30 -9 14 -25 30 -17 30 15 0 18 -7 26 -25 31 -70 18 -103
-29 -66 -92 24 -41 22 -75 -4 -54 -8 7 -15 19 -15 26 0 19 -10 18 -26 -3 -13
-17 -16 -16 -44 15 -28 31 -29 34 -15 55 34 48 8 81 -72 90 -42 5 -53 3 -53
-8z m90 -55 c0 -21 -16 -35 -24 -22 -8 13 5 53 15 46 5 -3 9 -14 9 -24z"/>
<path d="M1220 2741 c-22 -6 -25 -12 -22 -44 2 -20 -1 -44 -6 -53 -8 -15 -12
-13 -28 17 -10 19 -17 40 -15 48 2 10 -5 12 -29 7 -18 -3 -39 -6 -46 -6 -8 0
-14 -7 -14 -15 0 -8 6 -15 14 -15 8 0 37 -31 65 -70 28 -38 55 -70 60 -70 12
0 16 15 32 100 6 36 16 69 20 75 11 11 12 35 2 34 -5 -1 -19 -4 -33 -8z"/>
<path d="M980 2674 c-31 -14 -33 -17 -18 -28 22 -16 60 -119 52 -140 -7 -19
-2 -19 49 -5 22 6 36 15 34 22 -3 7 -9 11 -15 10 -15 -3 -55 112 -47 136 8 25
-6 26 -55 5z"/>
<path d="M1847 2684 c-3 -3 -3 -12 0 -20 6 -17 -36 -134 -48 -134 -22 0 -6
-21 27 -35 47 -19 47 -19 40 9 -7 29 27 124 52 142 14 10 12 14 -22 28 -44 18
-41 18 -49 10z"/>
<path d="M873 2633 c-33 -17 -45 -43 -19 -43 14 0 51 -48 44 -56 -3 -2 -32 6
-66 17 -93 31 -100 24 -57 -61 19 -38 35 -76 35 -85 0 -18 11 -19 45 -3 30 13
33 34 6 41 -10 2 -24 14 -30 26 -10 18 -9 21 7 21 10 0 41 -7 68 -15 27 -8 52
-15 57 -15 15 0 5 37 -25 90 -17 30 -30 65 -29 78 0 12 0 22 -2 21 -1 0 -17
-8 -34 -16z"/>
<path d="M1977 2634 c-3 -3 -3 -12 -1 -19 7 -17 -41 -111 -62 -123 -23 -13
-15 -22 48 -56 69 -37 119 -32 148 17 27 43 25 69 -6 107 -27 31 -117 84 -127
74z m83 -79 c30 -36 1 -105 -45 -105 -42 0 -46 20 -17 72 28 51 42 58 62 33z"/>
<path d="M643 2486 l-28 -24 27 -11 c33 -12 81 -74 76 -98 -6 -35 -44 -27 -80
18 -18 23 -32 48 -30 55 2 8 -3 14 -11 14 -15 0 -75 -59 -61 -61 5 -1 14 -2
19 -3 6 0 28 -20 49 -43 31 -35 45 -43 73 -43 39 0 83 37 83 70 0 27 -22 70
-49 94 -12 11 -21 27 -21 38 0 24 -13 23 -47 -6z"/>
<path d="M1360 2494 c-14 -2 -59 -9 -100 -15 -276 -40 -542 -217 -707 -471
-220 -338 -214 -791 15 -1138 248 -375 726 -550 1160 -424 346 101 609 367
718 729 26 83 28 104 28 270 1 187 -6 230 -55 364 -57 154 -125 259 -253 386
-149 148 -316 238 -516 279 -79 15 -247 28 -290 20z m50 -169 l0 -125 -85 0
-85 0 0 95 0 95 -67 1 c-53 0 -63 2 -44 10 37 15 202 48 244 48 l37 1 0 -125z
m283 89 c216 -57 420 -196 542 -369 60 -86 62 -92 24 -64 -28 20 -48 25 -116
27 l-81 4 -23 60 c-12 34 -23 85 -23 115 -1 48 -5 58 -33 83 -87 78 -221 18
-210 -95 3 -26 -4 -61 -21 -102 l-24 -63 -72 0 c-86 0 -133 -21 -158 -71 -45
-88 6 -189 97 -189 14 0 25 -4 25 -8 0 -5 -18 -55 -41 -112 -22 -58 -38 -112
-36 -122 4 -15 -2 -18 -36 -18 l-42 0 2 477 c1 263 3 480 3 482 0 9 139 -13
223 -35z m-623 -129 l0 -85 -85 0 -85 0 0 -69 0 -69 -32 -5 c-18 -2 -58 -2
-88 0 -108 9 -189 -64 -190 -170 0 -81 51 -154 137 -195 18 -9 33 -19 34 -24
4 -45 0 -79 -14 -99 -9 -13 -17 -36 -17 -51 l0 -27 -140 -3 -140 -3 0 42 c0
106 57 297 125 418 67 120 171 236 289 320 67 48 172 105 194 105 9 0 12 -24
12 -85z m120 -45 l0 -90 80 0 80 0 0 -40 0 -40 -80 0 -80 0 0 -265 0 -265 -35
0 -35 0 0 265 0 265 -79 0 c-85 0 -90 3 -83 52 l4 28 79 0 79 0 0 90 0 90 35
0 35 0 0 -90z m753 -7 c28 -31 30 -66 7 -96 -42 -53 -123 -25 -123 43 0 16 8
39 18 50 23 25 76 26 98 3z m-94 -185 c14 -25 10 -34 -88 -209 -57 -101 -108
-188 -113 -194 -11 -12 2 25 84 235 36 91 68 173 71 183 9 24 28 17 46 -15z
m196 -133 c95 -247 107 -280 97 -270 -13 14 -234 407 -230 409 17 10 64 21 69
17 3 -3 32 -73 64 -156z m-977 -155 c1 -140 0 -260 -2 -265 -2 -7 -20 -9 -40
-7 -28 3 -36 9 -36 24 0 26 -19 60 -42 77 -17 11 -18 15 -5 30 9 10 15 37 14
75 0 52 3 61 26 78 48 35 67 79 67 156 l0 71 -42 10 -43 10 50 -2 50 -2 3
-255z m342 -5 l0 -265 -85 0 -85 0 0 265 0 265 85 0 85 0 0 -265z m-544 226
c10 -13 14 -13 28 -2 19 16 35 6 18 -11 -9 -9 -23 -9 -60 1 -77 22 -107 24
-140 7 -79 -41 -69 -140 20 -205 23 -17 37 -31 31 -31 -16 0 -91 57 -102 78
-18 34 -22 96 -9 122 7 13 29 35 48 47 30 21 41 23 94 17 37 -4 66 -13 72 -23z
m834 -41 c-12 -22 -25 -26 -35 -10 -10 16 -77 12 -97 -7 -38 -34 -12 -113 37
-113 31 0 38 26 14 49 -22 20 -12 35 15 25 19 -7 21 -55 4 -72 -7 -7 -24 -12
-38 -12 -63 0 -87 93 -35 137 21 18 38 23 86 23 57 0 59 -1 49 -20z m220 -12
c11 -18 20 -36 20 -40 0 -5 -20 -8 -45 -8 -25 0 -45 3 -45 6 0 9 41 74 46 74
2 0 13 -15 24 -32z m296 14 c46 -37 52 -84 16 -124 -17 -21 -62 -24 -80 -6
-27 27 -1 91 29 72 8 -5 4 -12 -12 -24 -20 -16 -21 -20 -10 -34 17 -21 40 -20
63 1 22 20 23 70 1 95 -18 20 -73 24 -103 8 -15 -8 -21 -6 -30 10 -10 19 -8
20 47 20 40 0 65 -6 79 -18z m121 -69 c39 -86 77 -224 88 -320 l7 -63 -95 0
c-87 0 -95 1 -90 18 4 15 -27 106 -74 219 -2 6 6 14 19 18 101 28 141 94 108
179 -21 56 3 22 37 -51z m-1341 10 c-8 -35 -76 -98 -122 -113 -31 -11 -37 -9
-74 20 -50 40 -80 77 -80 101 0 18 10 19 141 19 l141 0 -6 -27z m996 -86 c14
-17 18 -42 18 -119 0 -91 -1 -98 -20 -98 -18 0 -20 8 -22 112 -3 101 -5 113
-22 116 -29 6 -36 -16 -36 -125 0 -84 -3 -103 -15 -103 -12 0 -15 22 -17 113
l-3 112 -25 0 -25 0 -3 -112 c-2 -105 -4 -113 -22 -113 -19 0 -20 7 -20 96 0
79 3 101 19 123 19 26 22 27 98 24 66 -4 81 -8 95 -26z m-1087 -75 c-14 -12
-96 -35 -102 -28 -3 2 17 11 43 20 58 17 72 19 59 8z m-10 -76 c-40 -18 -92
-30 -82 -19 10 10 76 31 97 31 8 0 2 -5 -15 -12z m835 -26 c0 -33 -3 -40 -20
-40 -24 0 -26 26 -4 58 21 30 24 28 24 -18z m370 -21 c0 -12 -7 -19 -20 -19
-17 0 -20 7 -20 43 l1 42 19 -24 c11 -13 20 -32 20 -42z m-1190 -43 c11 -14 5
-16 -55 -16 l-68 0 24 19 c44 33 69 33 99 -3z m1250 -46 c10 -19 5 -19 -265
-22 -151 -2 -275 -2 -275 0 0 1 6 11 12 22 12 19 24 20 265 20 241 0 253 -1
263 -20z m-1568 -109 c14 -26 14 -31 2 -42 -11 -9 -18 -8 -34 6 -19 17 -50 15
-50 -4 0 -6 11 -18 25 -27 21 -14 23 -18 12 -37 -7 -12 -13 -23 -14 -25 -2 -6
-68 30 -75 42 -4 6 -8 35 -8 64 l0 52 63 0 c58 0 63 -2 79 -29z m318 22 c0 -4
-10 -17 -21 -29 -20 -21 -24 -22 -48 -10 -40 21 -102 28 -148 18 -36 -8 -45
-7 -59 9 -17 19 -13 19 129 19 81 0 147 -3 147 -7z m500 -188 c0 -194 0 -196
-21 -185 -30 17 -33 34 -10 71 12 19 21 51 21 72 l0 37 -55 0 c-42 0 -63 6
-92 26 -34 23 -46 25 -105 22 -51 -3 -68 0 -68 9 0 22 -22 15 -110 -36 -46
-27 -86 -49 -87 -47 -11 11 20 53 73 97 35 29 64 56 64 60 0 22 -26 18 -60
-10 -31 -25 -40 -28 -49 -17 -9 11 -6 21 14 44 14 16 25 35 25 41 0 8 69 11
230 11 l230 0 0 -195z m420 175 c-11 -11 -23 -34 -26 -50 -6 -25 -13 -30 -56
-39 -68 -15 -113 -14 -128 4 -18 22 -73 19 -95 -5 -25 -28 -23 -75 4 -104 l22
-24 -25 -51 c-27 -52 -56 -68 -56 -31 -1 11 -1 72 -1 135 0 63 0 131 1 150 l0
35 190 0 190 0 -20 -20z m600 -9 c0 -120 -66 -328 -146 -463 -46 -76 -211
-265 -222 -254 -2 3 17 59 44 126 42 104 52 120 72 120 35 0 88 25 106 51 20
29 22 109 3 109 -12 0 -57 79 -57 100 0 6 9 19 20 30 11 11 20 33 20 50 0 60
-67 90 -119 54 -17 -12 -36 -15 -75 -11 -74 8 -106 22 -106 49 0 12 -10 32
-22 45 l-21 23 251 0 252 0 0 -29z m-516 -58 c-2 -27 3 -34 33 -48 19 -9 54
-23 76 -30 l42 -13 -67 -1 -66 -1 -6 -57 c-3 -32 -10 -130 -16 -218 -18 -292
-22 -295 -41 -40 -10 127 -18 249 -18 273 l-1 42 -82 1 -83 1 54 13 c30 8 72
21 93 31 31 14 37 21 32 40 -8 30 3 46 29 42 18 -2 22 -9 21 -35z m-1149 -2
c-92 -16 -135 -62 -135 -145 0 -57 43 -111 101 -126 24 -7 39 -17 39 -27 0
-12 -3 -13 -14 -4 -7 6 -36 18 -64 26 -74 22 -112 69 -112 138 0 96 55 146
160 145 57 0 60 -1 25 -7z m-29 -88 c-4 -4 -11 -1 -16 7 -16 25 -11 35 7 17 9
-9 13 -20 9 -24z m75 4 c-16 -16 -26 0 -10 19 9 11 15 12 17 4 2 -6 -1 -17 -7
-23z m787 9 c3 -13 -1 -17 -14 -14 -11 2 -20 11 -22 22 -3 13 1 17 14 14 11
-2 20 -11 22 -22z m620 7 c-2 -10 -14 -19 -26 -21 -21 -3 -22 -1 -12 17 13 26
43 28 38 4z m-1725 -24 c19 -9 26 -23 35 -71 15 -78 46 -119 117 -149 l56 -24
-6 -45 c-8 -70 -9 -135 -1 -151 4 -8 -9 4 -29 26 -72 79 -155 242 -189 371 -8
30 -12 54 -11 54 2 0 15 -5 28 -11z m719 -66 c-3 -38 -1 -43 17 -43 14 0 21 6
21 20 0 18 6 20 53 18 43 -1 45 -2 15 -5 -45 -5 -52 -30 -10 -36 25 -4 25 -4
-5 -6 -28 -1 -33 -5 -33 -25 0 -18 7 -26 23 -29 35 -7 -122 -11 -233 -7 -44 2
-49 4 -25 9 21 4 31 13 33 29 3 19 -1 22 -35 23 -30 2 -32 3 -10 6 41 6 34 31
-10 36 -34 3 -33 4 10 5 41 2 50 -1 54 -18 8 -28 43 -26 43 3 0 12 -4 29 -9
37 -16 24 -2 31 52 28 l52 -3 -3 -42z m-484 25 c19 -19 14 -30 -8 -18 -11 6
-20 15 -20 20 0 14 14 12 28 -2z m102 2 c0 -5 -9 -14 -20 -20 -22 -12 -27 -1
-8 18 14 14 28 16 28 2z m970 -37 c0 -16 3 -45 6 -65 6 -33 4 -38 -12 -38 -11
0 -29 7 -41 15 -12 8 -24 11 -27 6 -3 -5 -15 -7 -26 -4 -20 5 -40 34 -60 88
l-10 25 85 0 85 0 0 -27z m340 17 c0 -22 -45 -100 -58 -100 -10 0 -13 -11 -10
-45 2 -25 2 -45 1 -45 -2 0 -25 12 -53 28 -49 27 -50 27 -50 77 0 94 1 95 91
95 45 0 79 -4 79 -10z m-1197 -49 c24 -53 22 -63 -23 -90 -34 -21 -39 -28 -33
-50 8 -39 26 -53 75 -58 35 -4 47 -11 60 -33 10 -17 12 -33 7 -41 -13 -21 -11
-61 6 -92 8 -16 12 -40 9 -57 -4 -17 0 -41 10 -61 9 -18 16 -41 16 -51 0 -11
9 -33 21 -50 12 -16 19 -32 15 -35 -9 -9 -145 55 -217 102 -69 46 -210 174
-171 155 38 -19 92 -8 115 21 18 25 18 33 8 125 -6 55 -14 110 -17 125 -5 20
0 27 21 37 14 7 32 27 40 45 24 59 34 60 58 8z m-117 -7 c-23 -17 -36 -18 -36
-4 0 12 42 31 50 23 3 -3 -4 -11 -14 -19z m782 1 c18 -38 15 -45 -18 -45 -16
0 -30 4 -30 10 0 15 23 60 30 60 4 0 12 -11 18 -25z m597 -5 c20 -39 20 -40
-20 -40 -19 0 -35 2 -35 5 0 9 30 65 35 65 2 0 11 -13 20 -30z m-1470 9 c11
-17 0 -20 -21 -4 -17 13 -17 14 -2 15 9 0 20 -5 23 -11z m915 -113 c0 -18 -38
-46 -62 -46 -19 0 -58 34 -58 50 0 6 27 10 60 10 46 0 60 -3 60 -14z m600 4
c0 -17 -43 -50 -65 -50 -12 0 -29 8 -37 18 -34 39 -32 42 36 42 36 0 66 -4 66
-10z m-453 -10 c11 0 17 -37 26 -158 4 -52 4 -52 -16 -35 -15 14 -33 17 -84
15 -36 -1 -71 1 -78 5 -9 6 2 31 42 96 47 76 58 88 77 83 11 -3 26 -6 33 -6z
m-772 -6 c19 -8 80 -94 66 -94 -6 0 -22 18 -37 41 -19 31 -30 40 -45 36 -12
-3 -19 0 -19 9 0 15 9 17 35 8z m145 -29 c0 -24 -5 -35 -15 -35 -10 0 -15 11
-15 35 0 24 5 35 15 35 10 0 15 -11 15 -35z m150 20 c0 -9 -9 -15 -23 -15 -16
0 -31 -12 -48 -37 -17 -26 -43 -47 -84 -67 -68 -32 -77 -42 -70 -74 4 -15 2
-21 -5 -17 -16 10 -12 50 8 68 9 8 37 24 62 35 28 12 62 39 88 71 43 50 72 65
72 36z m209 -58 c16 -9 41 -17 55 -17 31 0 31 -1 6 -42 -11 -18 -20 -43 -20
-55 0 -24 17 -31 137 -54 35 -6 68 -18 74 -25 6 -8 19 -14 28 -14 13 0 20 -13
27 -52 8 -45 13 -54 36 -62 36 -13 68 15 68 57 0 27 2 29 28 24 15 -3 40 -11
57 -17 l29 -11 -29 -24 c-59 -47 -192 -116 -281 -145 -90 -28 -258 -59 -269
-49 -4 5 -9 472 -5 549 0 8 7 1 16 -16 8 -16 28 -38 43 -47z m488 28 c27 -13
56 -26 65 -29 15 -4 12 -17 -25 -100 -23 -53 -47 -96 -53 -96 -7 0 -22 8 -34
18 -21 17 -22 22 -15 125 4 59 9 107 11 107 2 0 25 -11 51 -25z m-1226 -65 c8
-77 3 -92 -25 -88 -25 4 -31 30 -21 105 5 43 10 54 23 51 13 -2 18 -19 23 -68z
m619 -200 l0 -250 -29 0 c-30 0 -203 28 -209 34 -2 2 8 16 21 30 14 15 29 39
34 54 6 15 16 43 23 62 7 19 14 55 15 80 1 25 8 59 15 77 11 25 11 37 2 58
-18 39 11 85 53 85 16 0 37 5 45 10 8 5 18 10 23 10 4 0 7 -112 7 -250z m-182
113 c-2 -22 -16 -35 -58 -61 -39 -23 -57 -40 -61 -60 l-7 -27 -1 27 c-1 27 4
33 79 82 23 15 35 30 34 44 0 12 3 22 8 22 5 0 8 -12 6 -27z m-18 -122 c0 -11
-13 -28 -30 -37 -37 -22 -44 -39 -24 -59 13 -13 13 -15 1 -15 -8 0 -20 7 -27
15 -11 13 -6 22 29 54 22 21 41 43 41 49 0 7 2 12 5 12 3 0 5 -9 5 -19z"/>
<path d="M1872 2211 c-18 -11 -12 -51 10 -64 21 -14 48 7 48 38 0 30 -31 44
-58 26z"/>
<path d="M2176 2425 c-43 -24 -85 -41 -92 -38 -21 8 -16 -14 8 -37 28 -26 44
-25 51 1 5 18 8 19 26 7 22 -13 29 -38 11 -38 -18 0 -10 -26 14 -49 25 -24 56
-21 37 3 -7 9 -3 36 14 92 26 84 30 104 18 103 -5 0 -44 -20 -87 -44z"/>
<path d="M2360 2342 c0 -20 -81 -92 -104 -92 -27 0 -25 -15 11 -58 63 -77 124
-89 174 -36 37 39 31 82 -20 148 -45 58 -61 68 -61 38z m50 -83 c17 -31 4 -67
-31 -84 -31 -16 -47 -12 -72 20 -7 9 69 85 85 85 4 0 12 -9 18 -21z"/>
<path d="M357 2180 c-3 -12 0 -20 6 -20 14 0 87 -113 87 -135 0 -9 -6 -18 -14
-21 -18 -7 -96 32 -117 59 -17 20 -17 20 -33 -11 -19 -37 -21 -55 -3 -49 17 6
109 -41 128 -66 17 -20 17 -20 38 21 12 23 19 42 16 42 -3 0 6 16 21 36 27 35
27 35 6 41 -26 6 -28 25 -7 43 12 10 18 10 30 0 18 -15 31 -7 51 32 l16 30
-29 -6 c-15 -4 -54 0 -86 9 -79 20 -104 19 -110 -5z"/>
<path d="M2476 2005 c-20 -18 -26 -34 -26 -66 0 -43 25 -109 42 -109 5 0 7 -4
4 -9 -3 -5 -3 -23 0 -40 7 -31 28 -42 37 -18 4 9 8 8 16 -3 18 -25 13 -50 -10
-50 -18 0 -20 -4 -14 -32 4 -18 9 -36 12 -40 7 -13 23 -9 23 5 1 6 32 34 70
61 39 27 70 55 70 62 0 13 -23 20 -112 30 -63 7 -91 26 -62 42 18 10 11 32
-11 32 -15 0 -25 22 -25 55 0 27 34 55 66 55 37 0 72 -58 44 -75 -16 -10 -12
-25 8 -25 35 0 45 16 38 55 -16 86 -111 125 -170 70z"/>
<path d="M227 1925 c-40 -85 -7 -165 68 -165 50 0 71 14 95 60 26 52 25 74 -4
88 -30 14 -38 6 -24 -24 25 -54 -46 -96 -100 -58 -37 26 -20 94 24 94 22 0 16
16 -11 28 -14 7 -27 12 -29 12 -1 0 -10 -16 -19 -35z"/>
<path d="M166 1718 c-3 -13 -6 -33 -6 -45 0 -20 4 -22 30 -17 34 7 121 -12
132 -29 10 -16 18 -5 28 37 8 37 -5 60 -20 36 -10 -16 -130 7 -137 26 -8 21
-20 17 -27 -8z"/>
<path d="M2670 1641 c0 -5 5 -13 10 -16 6 -3 10 -15 10 -25 0 -17 -8 -19 -75
-17 l-75 2 0 -37 c0 -41 18 -60 32 -34 13 22 128 24 128 1 0 -8 -4 -15 -10
-15 -5 0 -10 -4 -10 -10 0 -5 13 -10 30 -10 27 0 29 3 25 28 -3 15 -6 52 -8
82 -3 52 -4 55 -30 58 -15 2 -27 -1 -27 -7z"/>
<path d="M146 1573 c-9 -55 -7 -93 3 -93 6 0 13 5 16 10 10 15 108 12 131 -5
28 -19 34 -11 34 44 0 35 -3 42 -12 33 -14 -14 -58 -16 -58 -3 0 5 5 11 12 13
19 7 -2 28 -28 28 -21 0 -24 -3 -18 -25 5 -22 3 -25 -20 -25 -16 0 -26 6 -26
15 0 8 5 15 10 15 6 0 10 7 10 15 0 9 -9 15 -24 15 -19 0 -24 -6 -30 -37z"/>
<path d="M2566 1419 c-58 -68 -15 -169 71 -169 26 0 47 7 61 21 12 11 26 18
30 15 4 -2 14 -1 22 4 12 8 12 14 -3 45 -9 20 -17 42 -17 49 0 7 -12 25 -26
40 -40 39 -103 37 -138 -5z m115 -29 c42 -23 10 -90 -44 -90 -32 0 -67 24 -67
47 0 40 67 66 111 43z"/>
<path d="M300 1431 c0 -5 -29 -11 -65 -13 -36 -1 -65 0 -65 5 0 4 -7 7 -15 7
-11 0 -15 -11 -15 -38 0 -49 5 -53 38 -36 31 16 132 19 132 4 0 -5 5 -10 10
-10 6 0 10 20 10 45 0 33 -4 45 -15 45 -8 0 -15 -4 -15 -9z"/>
<path d="M150 1303 c1 -10 6 -47 13 -83 10 -55 15 -65 35 -68 15 -2 22 2 22
12 0 9 -4 16 -10 16 -5 0 -10 8 -10 19 0 15 10 20 55 26 30 3 64 3 76 0 21 -7
22 -5 15 36 -8 52 -13 57 -29 36 -7 -10 -34 -19 -71 -23 l-59 -7 7 26 c6 24 3
27 -19 27 -17 0 -25 -5 -25 -17z"/>
<path d="M2511 1186 c-16 -64 -14 -84 10 -91 26 -9 33 -1 21 22 -6 11 -7 24
-3 31 10 16 109 -11 126 -35 13 -17 14 -16 24 8 21 57 19 62 -29 64 -37 2 -88
19 -131 42 -4 2 -12 -16 -18 -41z"/>
<path d="M280 1129 c-30 -11 -63 -18 -72 -15 -25 6 -28 -4 -13 -42 15 -33 35
-43 35 -17 0 14 48 41 57 32 2 -2 -10 -33 -27 -68 -16 -35 -26 -67 -22 -71 5
-5 41 3 82 17 56 19 76 22 81 13 14 -22 22 1 13 34 -10 33 -34 51 -34 25 0
-12 -46 -37 -66 -37 -2 0 10 30 26 66 17 36 30 70 30 75 0 14 -29 10 -90 -12z"/>
<path d="M2464 1035 c-19 -46 -18 -48 10 -41 27 7 116 -28 129 -50 13 -22 24
-16 36 17 15 44 14 47 -12 47 -28 0 -127 41 -127 53 0 22 -22 6 -36 -26z"/>
<path d="M2437 925 c-34 -17 -64 -52 -71 -82 -4 -12 -17 -33 -31 -47 -28 -28
-32 -46 -10 -46 18 0 20 -21 3 -38 -17 -17 -38 -15 -38 3 0 23 -14 18 -39 -16
-24 -32 -22 -42 7 -44 9 -1 52 -12 95 -25 42 -13 80 -20 83 -17 4 3 -12 42
-35 87 -30 57 -39 85 -33 96 6 12 11 13 16 5 13 -21 28 -12 22 14 -5 19 0 32
18 50 14 14 31 25 39 25 25 0 67 -41 67 -64 0 -25 -31 -58 -50 -54 -22 5 -22
-20 0 -32 30 -16 46 -7 70 39 35 70 23 122 -35 147 -42 17 -43 17 -78 -1z"/>
<path d="M370 923 c-34 -13 -60 -47 -60 -80 0 -41 23 -89 49 -103 35 -18 88
-12 118 14 23 20 28 32 28 71 0 40 -5 51 -33 76 -31 28 -66 35 -102 22z m86
-54 c17 -19 17 -23 3 -47 -21 -37 -64 -60 -86 -46 -31 19 -28 58 7 88 38 31
51 32 76 5z"/>
<path d="M570 721 c0 -26 -22 -42 -40 -31 -39 25 -100 1 -100 -39 0 -19 66
-101 81 -101 5 0 9 9 9 20 0 22 85 96 106 92 23 -5 16 22 -14 51 -33 32 -42
34 -42 8z m-64 -79 c-8 -9 -19 -13 -22 -9 -10 9 16 38 28 31 6 -4 4 -13 -6
-22z"/>
<path d="M2047 520 c-46 -29 -60 -50 -33 -50 16 0 81 -96 81 -120 0 -20 17
-16 65 16 42 28 44 32 34 58 -8 20 -24 21 -24 2 0 -19 -32 -30 -42 -14 -13 21
-9 28 12 28 24 0 25 9 6 35 -13 18 -14 18 -31 1 -16 -16 -19 -16 -27 -2 -12
21 -2 37 17 29 16 -5 19 5 9 31 -8 22 -13 21 -67 -14z"/>
<path d="M775 521 c7 -23 -50 -121 -71 -121 -38 0 12 -47 81 -76 69 -29 135
13 135 86 0 39 -26 70 -90 109 -44 27 -63 27 -55 2z m95 -100 c0 -37 -27 -71
-54 -71 -28 0 -51 24 -40 42 53 89 54 91 75 72 10 -9 19 -29 19 -43z"/>
<path d="M1866 423 c-29 -15 -29 -15 -9 -32 28 -22 66 -99 60 -122 -8 -29 3
-29 63 0 43 20 54 30 52 46 -6 32 -22 43 -28 18 -3 -12 -13 -24 -21 -27 -17
-7 -66 95 -57 119 8 20 -22 19 -60 -2z"/>
<path d="M994 405 c8 -21 -35 -135 -52 -135 -30 0 -3 -24 47 -43 52 -20 54
-20 67 -2 21 29 17 37 -16 30 -32 -7 -39 5 -20 35 8 13 11 12 24 -5 14 -17 17
-18 26 -5 15 23 12 38 -10 45 -21 7 -27 30 -10 40 6 3 13 -1 16 -9 9 -23 31
-20 39 5 8 24 11 22 -43 42 -53 21 -76 22 -68 2z"/>
<path d="M1738 378 c-30 -11 -36 -23 -15 -31 17 -6 50 -119 41 -141 -7 -19 -3
-20 47 -4 38 11 53 28 25 28 -17 0 -57 120 -44 135 22 25 -4 32 -54 13z"/>
<path d="M1297 335 c-21 -7 -45 -21 -52 -32 -17 -22 -19 -77 -4 -105 13 -25
68 -48 113 -48 30 0 37 4 42 25 8 33 -1 42 -21 21 -23 -23 -42 -20 -71 10 -20
19 -24 31 -19 52 10 39 24 52 57 52 21 0 31 -6 35 -20 8 -31 33 -24 33 9 0 29
-4 33 -60 46 -8 2 -32 -2 -53 -10z"/>
<path d="M1575 340 c-3 -6 1 -13 9 -16 9 -3 16 -17 16 -30 0 -20 -5 -24 -29
-24 -31 0 -49 26 -31 44 19 19 10 26 -29 26 -42 0 -63 -16 -40 -31 10 -6 14
-30 14 -84 l0 -75 37 0 c43 0 56 14 34 36 -27 27 -20 44 19 44 31 0 35 -3 35
-25 0 -14 -4 -25 -10 -25 -5 0 -10 -4 -10 -10 0 -11 59 -14 84 -4 20 8 21 24
2 24 -16 0 -32 105 -21 139 6 19 2 21 -34 21 -22 0 -43 -5 -46 -10z"/>
</g>
</svg>
